<svg width="356" height="86" viewBox="0 0 356 86" fill="none" xmlns="http://www.w3.org/2000/svg">
<path d="M354.895 6.29846C355.169 6.33766 355.422 6.14785 355.461 5.8745C355.5 5.60116 355.311 5.34779 355.037 5.30858L354.895 6.29846ZM0.2868 80.7655C42.3562 88.1326 72.2773 85.2455 96.8279 77.2243C121.361 69.2087 140.504 56.0714 160.981 43.0251C181.466 29.9731 203.322 16.9854 233.356 9.15914C263.391 1.3328 301.638 -1.33967 354.895 6.29846L355.037 5.30858C301.679 -2.34401 263.294 0.324588 233.104 8.19145C202.914 16.0584 180.951 29.116 160.443 42.1818C139.927 55.2534 120.904 68.3063 96.5173 76.2738C72.1481 84.2357 42.3961 87.1244 0.459293 79.7805L0.2868 80.7655Z" fill="#1A202C"/>
</svg>
